# xmcd CD database file
#
# Track frame offsets:
#	150
#	23193
#	45818
#	66135
#	84941
#	108143
#	126819
#	166444
#	193267
#	212716
#	233100
#	257101
#
# Disc length: 3786 seconds
#
# Revision: 1
# Processed by: cddbd v1.5.2PL0 Copyright (c) Steve Scherf et al.
# Submitted via: Feurio! 1.68 - http://www.feurio.com
#
DISCID=990ec80c
DTITLE=Various Artist - Step On With Jackie
DYEAR=1900
DGENRE=R&B
TTITLE0=Jonathan Butler - Many Faces
TTITLE1=Kashif - Sexy Girls
TTITLE2=Chante Moore - Wey U
TTITLE3=Will Downing - Love Of My Life
TTITLE4=Tevin Campbell - Alone With You
TTITLE5=G. Womack - Groove With You
TTITLE6=The Temptations - Love 2 The Music
TTITLE7=Jason Weaver - Love Ambition
TTITLE8=Loose Ends - You Can't Stop The Rain
TTITLE9=Gerald Levert - You've Got The Love
TTITLE10=The Temptations - I'm Glad There Is You
TTITLE11=Whitney Houston - One Of Those Days
EXTD=
EXTT0=
EXTT1=
EXTT2=
EXTT3=
EXTT4=
EXTT5=
EXTT6=
EXTT7=
EXTT8=
EXTT9=
EXTT10=
EXTT11=
PLAYORDER=
